<?xml version="1.0" standalone="no"?>
<!DOCTYPE svg PUBLIC "-//W3C//DTD SVG 20010904//EN"
 "http://www.w3.org/TR/2001/REC-SVG-20010904/DTD/svg10.dtd">
<svg version="1.0" xmlns="http://www.w3.org/2000/svg"
 width="512.000000pt" height="512.000000pt" viewBox="0 0 512.000000 512.000000"
 preserveAspectRatio="xMidYMid meet">
<metadata>
Created by potrace 1.11, written by Peter Selinger 2001-2013
</metadata>
<g transform="translate(0.000000,512.000000) scale(0.100000,-0.100000)"
fill="#000000" stroke="none">
<path d="M0 2560 l0 -2560 2560 0 2560 0 0 2560 0 2560 -2560 0 -2560 0 0
-2560z m4758 1037 l32 -18 0 -82 c1 -139 -31 -1260 -36 -1294 -6 -42 -29 -53
-119 -60 -88 -7 -157 2 -185 25 -20 17 -21 34 -41 697 -11 374 -17 690 -15
701 5 20 32 36 81 48 11 3 72 4 135 2 85 -2 123 -7 148 -19z m-3253 -105 c127
-28 245 -76 295 -120 36 -33 42 -44 51 -102 19 -115 -6 -240 -46 -240 -9 0
-52 20 -98 44 -249 135 -537 163 -737 73 -208 -93 -332 -295 -347 -568 -13
-236 59 -457 187 -573 155 -140 423 -187 608 -106 l42 19 0 225 0 226 -190 0
-190 0 -17 26 c-24 37 -24 201 0 238 l17 26 345 0 c245 0 352 -3 370 -12 54
-25 55 -31 55 -492 0 -252 -4 -435 -10 -450 -13 -35 -59 -61 -157 -92 -214
-66 -488 -90 -681 -60 -224 34 -386 110 -522 246 -167 167 -244 360 -257 646
-15 349 81 622 290 820 138 132 316 214 532 244 98 14 358 4 460 -18z m2304
-26 l21 -19 0 -891 c0 -876 0 -892 -20 -924 -31 -51 -70 -62 -216 -62 -152 0
-196 11 -249 65 -58 58 -660 1182 -741 1383 -5 14 -8 -256 -6 -697 l3 -720
-28 -18 c-40 -26 -256 -26 -296 0 l-27 17 0 888 c0 824 1 889 18 922 29 60 65
70 238 70 188 0 237 -12 290 -73 42 -49 403 -714 573 -1057 l116 -235 -3 656
c-3 470 -1 663 7 678 17 31 64 40 187 38 94 -2 115 -5 133 -21z m877 -1487
c90 -23 121 -92 112 -248 -5 -91 -26 -133 -77 -157 -47 -22 -158 -30 -218 -15
-81 21 -109 60 -119 168 -8 83 9 174 39 209 43 49 162 68 263 43z"/>
</g>
</svg>
